# AST/ASF file generated using VICON BodyLanguage
# -----------------------------------------------
:version 1.10
:name VICON
:units
  mass 1.0
  length 0.45
  angle deg
:documentation
   .ast/.asf automatically generated from VICON data using
   VICON BodyBuilder and BodyLanguage model FoxedUp or BRILLIANT.MOD
:root
   order TX TY TZ RX RY RZ
   axis XYZ
   position 0 0 0  
   orientation 0 0 0 
:bonedata
  begin
     id 1 
     name lhipjoint
     direction 0.611823 -0.767273 0.19226 
     length 2.47422 
     axis 0 0 0  XYZ
  end
  begin
     id 2 
     name lfemur
     direction 0.34202 -0.939693 0  
     length 7.40835  
     axis 0 0 20  XYZ
    dof rx ry rz
    limits (-160.0 20.0)
           (-70.0 70.0)
           (-60.0 70.0)
  end
  begin
     id 3 
     name ltibia
     direction 0.34202 -0.939693 0   
     length 8.03679   
     axis 0 0 20   XYZ
    dof rx
    limits (-10.0 170.0)
  end
  begin
     id 4 
     name lfoot
     direction 0.0883598 -0.242766 0.966052   
     length 2.06694   
     axis -90 7.62852e-016 20   XYZ
    dof rx rz
    limits (-45.0 90.0)
           (-70.0 20.0)
  end
  begin
     id 5 
     name ltoes
     direction 1.53617e-011 -4.21699e-011 1   
     length 1.03711   
     axis -90 7.62852e-016 20   XYZ
    dof rx
    limits (-90.0 20.0)
  end
  begin
     id 6 
     name rhipjoint
     direction -0.590066 -0.783143 0.196236   
     length 2.42408  
     axis 0 0 0  XYZ 
  end
  begin
     id 7 
     name rfemur
     direction -0.34202 -0.939693 0   
     length 7.88987   
     axis 0 0 -20   XYZ
    dof rx ry rz
    limits (-160.0 20.0)
           (-70.0 70.0)
           (-70.0 60.0)
  end
  begin
     id 8 
     name rtibia
     direction -0.34202 -0.939693 0   
     length 7.87584   
     axis 0 0 -20   XYZ
    dof rx
    limits (-10.0 170.0)
 end
 begin
     id 9 
     name rfoot
     direction -0.130476 -0.358481 0.924374   
     length 2.21745  
     axis -90 -7.62852e-016 -20   XYZ
    dof rx rz
    limits (-45.0 90.0)
           (-20.0 70.0)
  end
  begin
     id 10 
     name rtoes
     direction 8.20695e-005 8.89091e-005 1   
     length 1.09536   
     axis -90 -7.62852e-016 -20   XYZ
    dof rx
    limits (-90.0 20.0)
  end
  begin
     id 11 
     name lowerback
     direction 0.00981224 0.999875 -0.0124197   
     length 1.94808   
     axis 0 0 0   XYZ
    dof rx ry rz
    limits (-20.0 45.0)
           (-30.0 30.0)
           (-30.0 30.0)
  end
  begin
     id 12 
     name upperback
     direction 0.038911 0.999194 0.00981686   
     length 1.94415   
     axis 0 0 0   XYZ
    dof rx ry rz
    limits (-20.0 45.0)
           (-30.0 30.0)
           (-30.0 30.0)
  end
  begin
     id 13 
     name thorax
     direction 0.0330692 0.999334 0.0154389   
     length 1.94117   
     axis 0 0 0   XYZ
    dof rx ry rz
    limits (-20.0 45.0)
           (-30.0 30.0)
           (-30.0 30.0)
  end
  begin
     id 14 
     name lowerneck
     direction -0.0374305 0.99415 0.10132   
     length 1.87291   
     axis 0 0 0   XYZ
    dof rx ry rz
    limits (-20.0 45.0)
           (-30.0 30.0)
           (-30.0 30.0)
  end
  begin
     id 15 
     name upperneck
     direction 0.0120692 0.985979 -0.166431   
     length 1.89248   
     axis 0 0 0   XYZ
    dof rx ry rz
    limits (-20.0 45.0)
           (-30.0 30.0)
           (-30.0 30.0)
  end
  begin
     id 16
     name head
     direction 0.00629908 0.997708 -0.06737  
     length 1.90559  
     axis 0 0 0   XYZ
    dof rx ry rz
    limits (-20.0 45.0)
           (-30.0 30.0)
           (-30.0 30.0)
  end
  begin
     id 17 
     name lclavicle
     direction 0.961536 0.27308 -0.0295863  
     length 3.52757  
     axis 0 0 0   XYZ
    dof ry rz
    limits (-20.0 10.0)
           (0.0 20.0)
  end
  begin
     id 18 
     name lhumerus
     direction 1 -4.48969e-011 2.61153e-029   
     length 5.14845   
     axis 180 -30 -90   XYZ
    dof rx ry rz
    limits (-60.0 90.0)
           (-90.0 90.0)
           (-90.0 90.0)
  end
  begin
     id 19
     name lradius
     direction 1 -4.4896e-011 -3.37549e-027   
     length 3.43674   
     axis 180 -30 -90   XYZ
    dof rx
    limits (-10.0 170.0)
  end
  begin
     id 20
     name lwrist
     direction 1 -4.48969e-011 2.56952e-028   
     length 1.71837   
     axis -5.12785e-016 90 90   XYZ
    dof ry
    limits (-180.0 0.0)
 end
  begin
     id 21 
     name lhand
     direction 1 -4.49094e-011 5.13905e-028   
     length 0.588709   
     axis -3.27915e-016 90 90   XYZ
    dof rx rz
    limits (-90.0 90.0)
           (-45.0 45.0)
  end
  begin
     id 22 
     name lfingers
     direction 1 -4.48821e-011 1.02781e-027   
     length 0.474633   
     axis -6.5583e-016 90 90   XYZ
    dof rx
    limits (0.0 90.0)
  end
  begin
     id 23
     name lthumb
     direction 0.707107 -6.34922e-011 0.707107   
     length 0.68148   
     axis -90 45 2.85299e-015   XYZ
    dof rx rz
    limits (-45.0 45.0)
           (-45.0 45.0)
  end
  begin
     id 24 
     name rclavicle
     direction -0.940964 0.333844 -0.0559866   
     length 3.55948  
     axis 0 0 0   XYZ 
    dof ry rz
    limits (-10.0 20.0)
           (-20.0 0.0)
  end
  begin
     id 25 
     name rhumerus
     direction -1 -4.48973e-011 3.15259e-027  
     length 5.42185   
     axis 180 30 90   XYZ
    dof rx ry rz
    limits (-90.0 60.0)
           (-90.0 90.0)
           (-90.0 90.0)
  end
  begin
     id 26 
     name rradius
     direction -1 -4.48954e-011 -2.56271e-027   
     length 3.51317   
     axis 180 30 90   XYZ
    dof rx
    limits (-10.0 170.0)
  end
  begin
     id 27 
     name rwrist
     direction -1 -4.48943e-011 2.56952e-028   
     length 1.75658   
     axis -5.12785e-016 -90 -90   XYZ
    dof ry
    limits (-180.0 0.0)
  end
  begin
     id 28
     name rhand
     direction -1 -4.4912e-011 5.13905e-028   
     length 0.663187   
     axis -3.27915e-016 -90 -90   XYZ
    dof rx rz
    limits (-90.0 90.0)
           (-45.0 45.0)
  end
  begin
     id 29
     name rfingers
     direction -1 -4.48914e-011 1.02781e-027   
     length 0.534679   
     axis -6.5583e-016 -90 -90   XYZ
    dof rx
    limits (0.0 90.0)
  end
  begin
     id 30
     name rthumb
     direction -0.707107 -6.35033e-011 0.707107   
     length 0.767695   
     axis -90 -45 -2.85299e-015   XYZ
    dof rx rz
    limits (-45.0 45.0)
           (-45.0 45.0)
  end
:hierarchy
  begin
    root lhipjoint rhipjoint lowerback
    lhipjoint lfemur
    lfemur ltibia
    ltibia lfoot
    lfoot ltoes
    rhipjoint rfemur
    rfemur rtibia
    rtibia rfoot
    rfoot rtoes
    lowerback upperback
    upperback thorax
    thorax lowerneck lclavicle rclavicle
    lowerneck upperneck
    upperneck head
    lclavicle lhumerus
    lhumerus lradius
    lradius lwrist
    lwrist lhand lthumb
    lhand lfingers
    rclavicle rhumerus
    rhumerus rradius
    rradius rwrist
    rwrist rhand rthumb
    rhand rfingers
  end

#!OML:ASF F:\VICON\USERDATA\INSTALL\Justin_a\Justin_a.ASF
:FULLY-SPECIFIED
:DEGREES
1873
root 14.4075 17.9295 -13.1187 13.6641 -52.6921 -4.33449
lowerback 1.90091 2.03303 0.289798
upperback 1.08067 2.68727 4.12549
thorax -0.141403 1.32167 4.02464
lowerneck -12.7643 -1.55959 -4.40028
upperneck 27.9998 -1.0187 -1.5686
head 11.206 -1.23317 0.0245358
rclavicle 2.70347e-014 -5.56597e-015
rhumerus -30.5471 -11.0775 -78.9322
rradius 32.5722
rwrist -6.75407
rhand -26.1411 11.7421
rfingers 7.12502
rthumb 0.409446 -18.2373
lclavicle 2.70347e-014 -5.56597e-015
lhumerus -39.4341 8.20796 89.4204
lradius 38.1807
lwrist 9.27335
lhand -17.6008 25.4513
lfingers 7.12502
lthumb 8.65562 55.2538
rfemur -15.4163 3.52651 28.773
rtibia 32.6281
rfoot -28.2368 -7.33744
rtoes 0.924623
lfemur -39.7265 0.00622866 -17.6746
ltibia 37.0843
lfoot -16.699 5.0678
ltoes -17.4216
1874
root 14.3492 17.927 -13.078 13.7129 -52.5718 -4.41488
lowerback 1.87443 2.05236 0.326052
upperback 1.11709 2.71032 4.20576
thorax -0.0928933 1.33191 4.08891
lowerneck -12.825 -1.56433 -4.47141
upperneck 28.058 -1.01689 -1.51867
head 11.2415 -1.23466 0.0541273
rclavicle -2.78299e-015 1.59028e-014
rhumerus -30.1489 -11.0328 -78.9008
rradius 32.6438
rwrist -6.6784
rhand -26.5213 12.8988
rfingers 7.12502
rthumb 0.0422551 -17.081
lclavicle -2.78299e-015 1.59028e-014
lhumerus -39.6338 8.40844 89.4227
lradius 38.0152
lwrist 9.31376
lhand -16.9244 26.0842
lfingers 7.12502
lthumb 9.30828 55.8587
rfemur -15.0079 3.32621 28.8672
rtibia 32.3405
rfoot -28.384 -7.1842
rtoes 1.43236
lfemur -39.6251 -0.0308837 -17.7514
ltibia 35.2085
lfoot -16.5274 5.04204
ltoes -17.8628
1875
root 14.2891 17.9268 -13.0364 13.506 -52.5745 -4.24498
lowerback 1.83545 2.11341 0.272193
upperback 1.20571 2.78708 4.15084
thorax 0.0147946 1.36888 4.06408
lowerneck -12.7353 -1.58525 -4.50598
upperneck 27.9235 -1.07873 -1.38929
head 11.1735 -1.24604 0.101291
rclavicle 4.57205e-014 -4.77083e-015
rhumerus -29.7359 -11.2078 -78.9725
rradius 32.6838
rwrist -6.55654
rhand -26.615 13.5497
rfingers 7.12502
rthumb -0.0482904 -16.43
lclavicle 4.57205e-014 -4.77083e-015
lhumerus -39.8801 8.55913 89.2947
lradius 37.9527
lwrist 9.15721
lhand -16.6466 26.202
lfingers 7.12502
lthumb 9.5763 55.9643
rfemur -14.5355 3.15763 28.7876
rtibia 32.0641
rfoot -28.5131 -7.08837
rtoes 1.12294
lfemur -39.3964 -0.0770959 -17.9393
ltibia 33.3355
lfoot -16.3971 5.05023
ltoes -17.7918
1876
root 14.2305 17.9226 -12.9968 13.485 -52.5268 -4.27241
lowerback 1.85645 2.18551 0.339308
upperback 1.25388 2.88286 4.11737
thorax 0.0509179 1.41645 3.98969
lowerneck -12.7797 -1.65464 -4.53159
upperneck 27.9124 -1.19085 -1.30186
head 11.1806 -1.28741 0.122519
rclavicle -9.93923e-016 4.6118e-014
rhumerus -29.3872 -11.175 -79.0702
rradius 32.8299
rwrist -6.70579
rhand -26.2304 13.8969
rfingers 7.12502
rthumb 0.323202 -16.0826
lclavicle -9.93923e-016 4.6118e-014
lhumerus -40.1705 8.67636 89.1328
lradius 37.8996
lwrist 8.93868
lhand -16.8818 26.0263
lfingers 7.12502
lthumb 9.34938 55.799
rfemur -14.107 2.99654 28.8585
rtibia 31.8039
rfoot -28.5624 -7.14206
rtoes 0.710359
lfemur -39.1736 -0.232772 -17.923
ltibia 31.4287
lfoot -16.1053 5.07545
ltoes -17.6521
1877
root 14.1717 17.9214 -12.9562 13.6984 -52.6072 -4.50109
lowerback 1.78912 2.3515 0.4628
upperback 1.29004 3.10167 4.15298
thorax 0.115698 1.52526 3.95611
lowerneck -12.7436 -1.76097 -4.65144
upperneck 27.846 -1.33193 -1.23293
head 11.1528 -1.3525 0.150416
rclavicle 7.05686e-014 1.98785e-014
rhumerus -29.0503 -10.7802 -79.258
rradius 33.3182
rwrist -7.66153
rhand -26.7003 13.1951
rfingers 7.12502
rthumb -0.130635 -16.7846
lclavicle 7.05686e-014 1.98785e-014
lhumerus -40.3349 8.66889 89.1483
lradius 37.6529
lwrist 8.81464
lhand -17.191 25.6688
lfingers 7.12502
lthumb 9.05106 55.4546
rfemur -13.7601 2.96044 29.0197
rtibia 31.5329
rfoot -28.5902 -7.1323
rtoes 0.14654
lfemur -38.9738 -0.534535 -17.6775
ltibia 29.5228
lfoot -15.7155 5.37978
ltoes -17.3669
1878
root 14.1099 17.9204 -12.9147 13.66 -52.7723 -4.51488
lowerback 1.7932 2.45606 0.299264
upperback 1.33943 3.23688 4.21996
thorax 0.142403 1.59122 4.11588
lowerneck -12.6822 -1.7694 -4.69322
upperneck 27.8028 -1.33737 -1.23196
head 11.1248 -1.35783 0.158204
rclavicle -7.05686e-014 4.6118e-014
rhumerus -28.6525 -10.5665 -79.2396
rradius 33.3655
rwrist -7.81417
rhand -26.4448 13.7094
rfingers 7.12502
rthumb 0.116133 -16.2703
lclavicle -7.05686e-014 4.6118e-014
lhumerus -40.5366 8.93959 89.114
lradius 37.3134
lwrist 8.693
lhand -17.6135 25.4843
lfingers 7.12502
lthumb 8.64332 55.2874
rfemur -13.2888 2.98825 29.0162
rtibia 31.2356
rfoot -28.6534 -7.05051
rtoes 0.34381
lfemur -38.6705 -0.662576 -17.6231
ltibia 27.683
lfoot -15.5413 5.6105
ltoes -18.0374
1879
root 14.0457 17.9137 -12.868 13.649 -52.8225 -4.58911
lowerback 1.76379 2.51408 0.336197
upperback 1.3933 3.31163 4.20593
thorax 0.211929 1.62774 4.0819
lowerneck -12.7936 -1.75782 -4.64755
upperneck 27.9497 -1.34139 -1.17294
head 11.2025 -1.35083 0.169118
rclavicle -1.45113e-014 7.95139e-016
rhumerus -28.2665 -10.6212 -79.292
rradius 33.3032
rwrist -7.66647
rhand -26.2768 14.2221
rfingers 7.12502
rthumb 0.278355 -15.7574
lclavicle -1.45113e-014 7.95139e-016
lhumerus -40.7402 9.02771 88.9542
lradius 37.0233
lwrist 8.84955
lhand -17.8611 25.5379
lfingers 7.12502
lthumb 8.40439 55.3507
rfemur -12.7536 2.97961 29.0755
rtibia 30.8953
rfoot -28.681 -7.13529
rtoes -0.18614
lfemur -38.3464 -0.905303 -17.4857
ltibia 25.9331
lfoot -15.4121 5.59445
ltoes -18.2367
